<svg width="175" height="50" viewBox="0 0 175 50" fill="none" xmlns="http://www.w3.org/2000/svg">
<path d="M74.5908 17.3594V19.5078H67.3291V33H64.6436V17.3594H74.5908ZM81.0469 30.6689V25.126C81.0469 24.7106 80.9717 24.3525 80.8213 24.0518C80.6709 23.751 80.4417 23.5182 80.1338 23.3535C79.833 23.1888 79.4535 23.1064 78.9951 23.1064C78.5726 23.1064 78.2074 23.1781 77.8994 23.3213C77.5915 23.4645 77.3516 23.6579 77.1797 23.9014C77.0078 24.1449 76.9219 24.4206 76.9219 24.7285H74.3438C74.3438 24.2702 74.4548 23.8262 74.6768 23.3965C74.8988 22.9668 75.221 22.5837 75.6436 22.2471C76.0661 21.9105 76.571 21.6455 77.1582 21.4521C77.7454 21.2588 78.4043 21.1621 79.1348 21.1621C80.0085 21.1621 80.7819 21.3089 81.4551 21.6025C82.1354 21.8962 82.6689 22.3402 83.0557 22.9346C83.4495 23.5218 83.6465 24.2594 83.6465 25.1475V30.3145C83.6465 30.8444 83.6823 31.3206 83.7539 31.7432C83.8327 32.1585 83.9437 32.5202 84.0869 32.8281V33H81.4336C81.3118 32.7207 81.2152 32.3662 81.1436 31.9365C81.0791 31.4997 81.0469 31.0771 81.0469 30.6689ZM81.4229 25.9316L81.4443 27.5322H79.5859C79.1061 27.5322 78.6836 27.5788 78.3184 27.6719C77.9531 27.7578 77.6488 27.8867 77.4053 28.0586C77.1618 28.2305 76.9792 28.4382 76.8574 28.6816C76.7357 28.9251 76.6748 29.2008 76.6748 29.5088C76.6748 29.8167 76.7464 30.0996 76.8896 30.3574C77.0329 30.6081 77.2406 30.805 77.5127 30.9482C77.792 31.0915 78.1286 31.1631 78.5225 31.1631C79.0524 31.1631 79.5143 31.0557 79.9082 30.8408C80.3092 30.6188 80.6243 30.3503 80.8535 30.0352C81.0827 29.7129 81.2044 29.4085 81.2188 29.1221L82.0566 30.2715C81.9707 30.5651 81.8239 30.8802 81.6162 31.2168C81.4085 31.5534 81.1364 31.8757 80.7998 32.1836C80.4704 32.4844 80.0729 32.7314 79.6074 32.9248C79.1491 33.1182 78.6191 33.2148 78.0176 33.2148C77.2585 33.2148 76.5817 33.0645 75.9873 32.7637C75.3929 32.4557 74.9274 32.0439 74.5908 31.5283C74.2542 31.0055 74.0859 30.4147 74.0859 29.7559C74.0859 29.14 74.2005 28.5957 74.4297 28.123C74.666 27.6432 75.0098 27.2422 75.4609 26.9199C75.9193 26.5977 76.4779 26.3542 77.1367 26.1895C77.7956 26.0176 78.5475 25.9316 79.3926 25.9316H81.4229ZM91.166 27.4463H88.9316V26.1357H90.7363C91.1947 26.1357 91.5599 26.0749 91.832 25.9531C92.1113 25.8314 92.3083 25.6631 92.4229 25.4482C92.5446 25.2262 92.6055 24.9684 92.6055 24.6748C92.6055 24.417 92.5446 24.1735 92.4229 23.9443C92.3083 23.708 92.1113 23.5146 91.832 23.3643C91.5527 23.2139 91.1732 23.1387 90.6934 23.1387C90.2995 23.1387 89.945 23.2031 89.6299 23.332C89.3219 23.4609 89.0785 23.64 88.8994 23.8691C88.7204 24.0983 88.6309 24.3633 88.6309 24.6641H86.042C86.042 23.9408 86.2461 23.3177 86.6543 22.7949C87.0697 22.2721 87.6247 21.8711 88.3193 21.5918C89.014 21.3125 89.7767 21.1729 90.6074 21.1729C91.3164 21.1729 91.9538 21.248 92.5195 21.3984C93.0853 21.5417 93.5651 21.7565 93.959 22.043C94.36 22.3223 94.6644 22.6732 94.8721 23.0957C95.0869 23.5111 95.1943 23.9945 95.1943 24.5459C95.1943 24.9398 95.1012 25.3122 94.915 25.6631C94.7288 26.014 94.4603 26.3255 94.1094 26.5977C93.7585 26.8626 93.3324 27.0703 92.8311 27.2207C92.3369 27.3711 91.7819 27.4463 91.166 27.4463ZM88.9316 26.6943H91.166C91.8535 26.6943 92.4622 26.7624 92.9922 26.8984C93.5221 27.0273 93.9661 27.2207 94.3242 27.4785C94.6823 27.7363 94.9508 28.055 95.1299 28.4346C95.3161 28.807 95.4092 29.2367 95.4092 29.7236C95.4092 30.2679 95.291 30.7585 95.0547 31.1953C94.8255 31.625 94.4961 31.9902 94.0664 32.291C93.6439 32.5918 93.139 32.821 92.5518 32.9785C91.9645 33.1361 91.3164 33.2148 90.6074 33.2148C89.834 33.2148 89.082 33.0859 88.3516 32.8281C87.6283 32.5703 87.0303 32.1729 86.5576 31.6357C86.0921 31.0915 85.8594 30.4004 85.8594 29.5625H88.4482C88.4482 29.8561 88.5378 30.1318 88.7168 30.3896C88.8958 30.6475 89.1536 30.8587 89.4902 31.0234C89.8268 31.181 90.2314 31.2598 90.7041 31.2598C91.1911 31.2598 91.5885 31.1846 91.8965 31.0342C92.2044 30.8766 92.4336 30.6725 92.584 30.4219C92.7344 30.1641 92.8096 29.8919 92.8096 29.6055C92.8096 29.2188 92.7344 28.9072 92.584 28.6709C92.4336 28.4346 92.2044 28.2627 91.8965 28.1553C91.5885 28.0407 91.2018 27.9834 90.7363 27.9834H88.9316V26.6943ZM110.223 30.8623V33H98.6963V30.8623H110.223ZM99.3623 30.8623V36.8457H96.7842L96.6875 30.8623H99.3623ZM112.307 30.8623L112.146 36.835H109.61V30.8623H112.307ZM108.332 17.3594V19.5078H101.113V17.3594H108.332ZM110.395 17.3594V33H107.709V17.3594H110.395ZM100.576 17.3594H103.272L102.896 23.6973C102.839 24.6999 102.735 25.6022 102.585 26.4043C102.435 27.2064 102.252 27.9261 102.037 28.5635C101.829 29.1937 101.593 29.7523 101.328 30.2393C101.063 30.7191 100.78 31.1344 100.479 31.4854C100.179 31.8363 99.8708 32.137 99.5557 32.3877C99.2477 32.6312 98.9434 32.8353 98.6426 33H97.2031V30.8623H97.9014C98.0947 30.6833 98.3096 30.4255 98.5459 30.0889C98.7822 29.7451 99.0114 29.2975 99.2334 28.7461C99.4626 28.1875 99.6631 27.4964 99.835 26.6729C100.007 25.8493 100.125 24.8574 100.189 23.6973L100.576 17.3594ZM113.596 27.3174V27.0703C113.596 26.2324 113.717 25.4554 113.961 24.7393C114.204 24.016 114.555 23.3893 115.014 22.8594C115.479 22.3223 116.045 21.9069 116.711 21.6133C117.384 21.3125 118.143 21.1621 118.988 21.1621C119.84 21.1621 120.6 21.3125 121.266 21.6133C121.939 21.9069 122.508 22.3223 122.974 22.8594C123.439 23.3893 123.794 24.016 124.037 24.7393C124.281 25.4554 124.402 26.2324 124.402 27.0703V27.3174C124.402 28.1553 124.281 28.9323 124.037 29.6484C123.794 30.3646 123.439 30.9912 122.974 31.5283C122.508 32.0583 121.942 32.4736 121.276 32.7744C120.61 33.068 119.855 33.2148 119.01 33.2148C118.158 33.2148 117.395 33.068 116.722 32.7744C116.056 32.4736 115.49 32.0583 115.024 31.5283C114.559 30.9912 114.204 30.3646 113.961 29.6484C113.717 28.9323 113.596 28.1553 113.596 27.3174ZM116.185 27.0703V27.3174C116.185 27.8402 116.238 28.3343 116.346 28.7998C116.453 29.2653 116.621 29.6735 116.851 30.0244C117.08 30.3753 117.373 30.651 117.731 30.8516C118.09 31.0521 118.516 31.1523 119.01 31.1523C119.49 31.1523 119.905 31.0521 120.256 30.8516C120.614 30.651 120.908 30.3753 121.137 30.0244C121.366 29.6735 121.534 29.2653 121.642 28.7998C121.756 28.3343 121.813 27.8402 121.813 27.3174V27.0703C121.813 26.5547 121.756 26.0677 121.642 25.6094C121.534 25.1439 121.362 24.7321 121.126 24.374C120.897 24.016 120.603 23.7367 120.245 23.5361C119.894 23.3285 119.475 23.2246 118.988 23.2246C118.501 23.2246 118.079 23.3285 117.721 23.5361C117.37 23.7367 117.08 24.016 116.851 24.374C116.621 24.7321 116.453 25.1439 116.346 25.6094C116.238 26.0677 116.185 26.5547 116.185 27.0703ZM133.479 29.8633L136.938 21.377H139.184L134.36 33H132.599L127.786 21.377H130.031L133.479 29.8633ZM129.365 21.377V33H126.776V21.377H129.365ZM137.594 33V21.377H140.193V33H137.594ZM149.646 30.6689V25.126C149.646 24.7106 149.571 24.3525 149.421 24.0518C149.271 23.751 149.041 23.5182 148.733 23.3535C148.433 23.1888 148.053 23.1064 147.595 23.1064C147.172 23.1064 146.807 23.1781 146.499 23.3213C146.191 23.4645 145.951 23.6579 145.779 23.9014C145.607 24.1449 145.521 24.4206 145.521 24.7285H142.943C142.943 24.2702 143.054 23.8262 143.276 23.3965C143.498 22.9668 143.821 22.5837 144.243 22.2471C144.666 21.9105 145.171 21.6455 145.758 21.4521C146.345 21.2588 147.004 21.1621 147.734 21.1621C148.608 21.1621 149.382 21.3089 150.055 21.6025C150.735 21.8962 151.269 22.3402 151.655 22.9346C152.049 23.5218 152.246 24.2594 152.246 25.1475V30.3145C152.246 30.8444 152.282 31.3206 152.354 31.7432C152.432 32.1585 152.543 32.5202 152.687 32.8281V33H150.033C149.911 32.7207 149.815 32.3662 149.743 31.9365C149.679 31.4997 149.646 31.0771 149.646 30.6689ZM150.022 25.9316L150.044 27.5322H148.186C147.706 27.5322 147.283 27.5788 146.918 27.6719C146.553 27.7578 146.248 27.8867 146.005 28.0586C145.761 28.2305 145.579 28.4382 145.457 28.6816C145.335 28.9251 145.274 29.2008 145.274 29.5088C145.274 29.8167 145.346 30.0996 145.489 30.3574C145.632 30.6081 145.84 30.805 146.112 30.9482C146.392 31.0915 146.728 31.1631 147.122 31.1631C147.652 31.1631 148.114 31.0557 148.508 30.8408C148.909 30.6188 149.224 30.3503 149.453 30.0352C149.682 29.7129 149.804 29.4085 149.818 29.1221L150.656 30.2715C150.57 30.5651 150.424 30.8802 150.216 31.2168C150.008 31.5534 149.736 31.8757 149.399 32.1836C149.07 32.4844 148.673 32.7314 148.207 32.9248C147.749 33.1182 147.219 33.2148 146.617 33.2148C145.858 33.2148 145.181 33.0645 144.587 32.7637C143.993 32.4557 143.527 32.0439 143.19 31.5283C142.854 31.0055 142.686 30.4147 142.686 29.7559C142.686 29.14 142.8 28.5957 143.029 28.123C143.266 27.6432 143.609 27.2422 144.061 26.9199C144.519 26.5977 145.077 26.3542 145.736 26.1895C146.395 26.0176 147.147 25.9316 147.992 25.9316H150.022Z" fill="white"/>
<path fill-rule="evenodd" clip-rule="evenodd" d="M42 21H8V43C8 45.2091 9.79086 47 12 47H21V30C21 29.4477 21.4477 29 22 29H28C28.5523 29 29 29.4477 29 30V45C29 46.1046 28.1046 47 27 47H41C41.5523 47 42 46.5523 42 46V21Z" fill="url(#paint0_linear_465_2154)"/>
<path d="M23.6543 4.22306C24.4172 3.52956 25.5822 3.52955 26.345 4.22305L45.0857 21.2601C45.7621 21.8749 45.3271 23 44.4131 23H5.58658C4.67255 23 4.23758 21.8749 4.9139 21.2601L23.6543 4.22306Z" fill="white"/>
<defs>
<linearGradient id="paint0_linear_465_2154" x1="32.5" y1="23" x2="-7.5" y2="55.5" gradientUnits="userSpaceOnUse">
<stop stop-color="white"/>
<stop offset="1" stop-color="white" stop-opacity="0"/>
</linearGradient>
</defs>
</svg>
